<svg width="40" height="40" viewBox="0 0 40 40" fill="none" xmlns="http://www.w3.org/2000/svg">
<circle cx="20" cy="20" r="20" fill="#EAA72A"/>
<path fill-rule="evenodd" clip-rule="evenodd" d="M23.634 13.6927L24.4134 10.7666L22.6294 10.293L21.8706 13.142C21.4017 13.0175 20.9198 12.8995 20.441 12.7825L21.2052 9.91466L19.4223 9.44108L18.6424 12.3662C18.2541 12.2715 17.8729 12.1779 17.503 12.0799L15.0449 11.4165L14.5387 13.3189C14.5387 13.3189 15.8627 13.6437 15.8343 13.6621C16.5569 13.8542 16.6805 14.3355 16.6526 14.7151L15.7648 18.0486C15.8146 18.0621 15.8791 18.0815 15.9501 18.1111C15.8906 18.0954 15.8271 18.0781 15.7616 18.0613L14.5172 22.7311C14.425 22.9497 14.1949 23.2762 13.6898 23.143C13.7073 23.1692 12.3931 22.7982 12.3931 22.7982L11.4721 24.8312L13.7936 25.4477C14.2255 25.5629 14.6486 25.6831 15.0652 25.7966L14.2777 28.7563L16.0596 29.2298L16.8395 26.3017C17.3261 26.4417 17.7986 26.5713 18.261 26.6937L17.4838 29.6081L19.2678 30.0817L20.0553 27.1277C23.1002 27.7524 25.4002 27.5555 26.4099 24.8128C27.2235 22.6045 26.4258 21.3108 24.8321 20.4505C26.0064 20.1994 26.8999 19.4446 27.1598 17.8608C27.5186 15.6973 25.8831 14.5057 23.634 13.6927ZM22.9784 23.5259C22.3903 25.7378 18.6645 24.4789 17.4551 24.159L18.5001 20.238C19.7094 20.5595 23.593 21.2192 22.9784 23.5259ZM23.6223 17.7735C23.0858 19.7854 19.9852 18.7106 18.9781 18.4432L19.9255 14.887C20.9326 15.1543 24.1811 15.6748 23.6223 17.7735Z" fill="white"/>
</svg>
